<?xml version="1.0" encoding="UTF-8" standalone="no"?>
<svg width="101px" height="29px" viewBox="0 0 101 29" version="1.1" xmlns="http://www.w3.org/2000/svg" xmlns:xlink="http://www.w3.org/1999/xlink">
  <g fill="#222222">
      <g transform="translate(2.000000, 2.000000)">
          <path d="M17.1918774,1.97777778 C17.1918774,0.905555556 18.0313716,0.0343434343 19.0634728,0.0343434343 C20.0955739,0.0343434343 20.9355545,0.905555556 20.9355545,1.97777778 C20.9355545,3.04949495 20.0955739,3.9209596 19.0634728,3.9209596 C18.0313716,3.9209596 17.1918774,3.04949495 17.1918774,1.97777778 L17.1918774,1.97777778 Z M94.6169747,16.240404 C94.4464981,16.1151515 94.3640564,15.8901515 94.3640564,15.5555556 L94.3640564,0.262121212 L89.9238813,0.262121212 L89.9238813,2.92853535 L91.4832198,2.92853535 L91.4832198,15.9080808 C91.4832198,18.0414141 92.5700389,19.169697 94.6235409,19.169697 C95.135214,19.169697 95.8127432,19.0424242 96.6395914,18.7570707 L96.6395914,16.0075758 C95.3336576,16.5217172 94.8232004,16.3926768 94.6169747,16.240404 L94.6169747,16.240404 Z M20.6201362,16.2871212 L22.0231031,16.2871212 L22.0231031,18.9512626 L16.339251,18.9512626 L16.339251,16.2871212 L17.7395428,16.2871212 L17.7395428,8.36035354 L16.1561284,8.36035354 L16.1561284,5.69494949 L20.6201362,5.69494949 L20.6201362,16.2871212 L20.6201362,16.2871212 Z M9.72033074,5.31388889 C8.02845331,5.31388889 6.68652724,5.8959596 5.43312257,7.17171717 L5.43312257,0.262121212 L0.992947471,0.262121212 L0.992947471,2.92676768 L2.57782101,2.92676768 C2.57684825,3.35126263 2.57684825,15.5555556 2.57684825,15.5555556 C2.57684825,15.8901515 2.49148833,16.1121212 2.32344358,16.240404 C1.90053502,16.5666667 0.855544747,16.2222222 0.30155642,16.0075758 L0.30155642,18.7570707 C1.1901751,19.0555556 1.80617704,19.169697 2.31687743,19.169697 C3.60724708,19.169697 4.50753891,18.7239899 5.00705253,17.8583333 C6.11502918,18.7277778 7.55836576,19.1893939 9.20768482,19.1893939 C13.1755837,19.1893939 15.9469844,16.3108586 15.9469844,12.1866162 C15.9469844,8.20505051 13.3295233,5.31388889 9.72033074,5.31388889 L9.72033074,5.31388889 Z M9.17169261,16.5035354 C7.05009728,16.5035354 5.51167315,14.7573232 5.51167315,12.3505051 C5.51167315,9.82474747 7.03818093,8.06085859 9.22422179,8.06085859 C11.0126459,8.06085859 12.9102626,9.33585859 12.9102626,12.1338384 C12.9102626,14.6659091 11.3370623,16.5035354 9.17169261,16.5035354 L9.17169261,16.5035354 Z M76.8562743,16.0075758 L76.8562743,18.7570707 C76.8562743,18.7570707 75.714251,19.169697 74.8411965,19.169697 C72.7862354,19.169697 71.7008755,18.0414141 71.7008755,15.9080808 L71.7008755,3.37373737 L74.5800097,1.46944444 L74.5800097,5.69494949 L78.3222276,5.69494949 L76.4518482,8.36035354 L74.5800097,8.36035354 L74.5800097,15.5555556 C74.5800097,15.8901515 74.6617218,16.1169192 74.8339008,16.240404 C75.3898346,16.6381313 76.8562743,16.0075758 76.8562743,16.0075758 L76.8562743,16.0075758 Z M28.8433852,5.31338384 C25.0274805,5.31338384 22.2582685,8.28510101 22.2582685,12.3782828 C22.2582685,16.3305556 24.8764591,19.1989899 28.4837062,19.1989899 C30.0824416,19.1989899 31.6999027,18.4893939 32.7465953,17.370202 L32.7465953,18.7888889 C32.7465953,21.4888889 30.3793774,22.2090909 28.9817607,22.2090909 C27.9328794,22.2090909 26.8642996,21.8699495 25.9114786,21.1575758 L23.5919261,22.9724747 C25.3115272,24.3489899 26.7701848,24.875 28.7726167,24.875 C31.9219358,24.875 35.6001946,23.2588384 35.6001946,18.7075758 L35.6001946,12.369697 C35.6001946,8.34570707 32.6955253,5.31338384 28.8433852,5.31338384 L28.8433852,5.31338384 Z M28.9550097,16.5330808 C26.8003405,16.5330808 25.2957198,14.8010101 25.2957198,12.3247475 C25.2957198,9.90126263 26.8557879,8.14343434 29.0080253,8.14343434 C31.1549125,8.14343434 32.7726167,9.94141414 32.7726167,12.3247475 C32.7726167,14.7229798 31.1320525,16.5330808 28.9550097,16.5330808 L28.9550097,16.5330808 Z M90.3450875,12.9472222 C90.3450875,7.93535354 86.9601167,5.31388889 83.6167315,5.31388889 C80.4379864,5.31388889 77.1498054,7.93535354 77.1498054,12.3239899 C77.1498054,16.2542929 80.1622082,19.3328283 84.0080253,19.3328283 C86.3222276,19.3328283 88.2011187,18.4989899 89.6206226,16.689899 L87.442607,14.9861111 C86.5479086,16.1229798 85.3968872,16.6664141 84.0607977,16.6664141 C82.0873054,16.6664141 80.6913911,15.5401515 80.1802043,13.5790404 L90.2876946,13.5790404 C90.2876946,13.5790404 90.3450875,13.3237374 90.3450875,12.9472222 L90.3450875,12.9472222 Z M80.1729086,10.8823232 C80.5921693,8.99949495 81.9340953,7.78964646 83.6685311,7.78964646 C85.5379377,7.78964646 86.9608463,8.99949495 87.3771887,10.8823232 L80.1729086,10.8823232 L80.1729086,10.8823232 Z M65.1072471,7.94166667 L65.1072471,5.69494949 L61.1653696,5.69494949 L61.1653696,8.36035354 L62.7497568,8.36035354 L62.7497568,16.2871212 C62.3951848,16.2871212 60.4508755,16.2881313 60.4508755,16.2881313 C60.1792315,16.2891414 59.9776265,16.2255051 59.8526265,16.0967172 C59.7271401,15.9664141 59.6631809,15.7542929 59.6631809,15.4669192 L59.6602626,9.74924242 C59.6602626,8.44722222 59.0162938,5.31388889 54.2266537,5.31388889 C52.0656615,5.32146465 50.6493191,6.18964646 50.1648833,6.48661616 L51.3115272,8.70126263 C51.6267023,8.51010101 52.6281615,7.84318182 54.2461089,7.91893939 C54.9277724,7.95050505 55.5452335,8.09292929 55.9841926,8.40909091 C56.5138619,8.78989899 56.7821012,9.42121212 56.7821012,10.1787879 L56.7821012,11.4186869 C55.818823,10.8494949 54.640321,10.5025253 53.6177043,10.5025253 C51.0846304,10.5025253 49.7821012,12.1189394 48.5226167,13.6833333 C47.2480545,15.2638889 46.0476654,16.6962121 43.6218385,16.585101 C41.3929961,16.4835859 40.0532588,14.7421717 40.0532588,12.1866162 C40.0532588,9.81111111 41.4773833,8.26388889 43.5403696,8.19368687 C45.8183366,8.11641414 46.9751946,10.1340909 47.1733949,11.3472222 L49.5848735,9.46060606 C48.7621595,7.32070707 46.7813716,5.21010101 43.3881323,5.31388889 C39.8161479,5.4229798 37.0145914,8.34494949 37.0145914,12.2138889 C37.0145914,15.6272727 39.0785506,19.3328283 43.5286965,19.3328283 C46.3672179,19.3328283 48.0445039,18.0073232 49.2925584,16.6176768 C49.9817607,18.175 51.5126459,19.169697 53.3027724,19.169697 C54.6381323,19.169697 55.7096304,18.7138889 57.1719358,17.5244949 C57.6536965,18.4659091 58.5746595,18.9497475 59.9226654,18.9497475 L67.2127918,18.9512626 L67.2127918,16.2871212 L65.630107,16.2871212 L65.630107,13.1027778 C65.630107,9.82146465 66.7103599,8.35782828 69.1339981,8.35782828 C69.714251,8.35782828 70.2208171,8.52222222 70.5586089,8.66944444 L70.5586089,5.94520202 C70.2354086,5.81818182 69.7035506,5.69494949 68.8465467,5.69494949 C67.2196012,5.69494949 65.8959144,6.50555556 65.1072471,7.94166667 L65.1072471,7.94166667 Z M56.7821012,15.3727273 C55.8365759,16.2510101 54.6797179,16.7755051 53.6697471,16.7755051 C52.4851654,16.7755051 51.6588035,15.9939394 51.6588035,14.8765152 C51.6588035,13.7290404 52.5588521,12.895202 53.8025292,12.895202 C54.7774805,12.895202 55.807393,13.3035354 56.7821012,14.0684343 L56.7821012,15.3727273 L56.7821012,15.3727273 Z" ></path>
      </g>
  </g>
</svg>
