<?xml version="1.0" encoding="utf-8"?>
<!-- Generator: Adobe Illustrator 19.0.0, SVG Export Plug-In . SVG Version: 6.00 Build 0)  -->
<svg version="1.1" id="Layer_1" xmlns="http://www.w3.org/2000/svg" xmlns:xlink="http://www.w3.org/1999/xlink" x="0px" y="0px"
	 width="220px" height="220px" viewBox="0 0 220 220" style="enable-background:new 0 0 220 220;" xml:space="preserve">
<style type="text/css">
	.st0{fill:#000000;}
</style>
<g>
	<path class="st0" d="M154.1,67.3c-6.1,0-11.5,1.7-16,4.6c-5.2-17.9-20.8-28-44.5-28H56.1v13h38.5c19.7,0,31.3,10.7,31.3,29.3
		s-11.6,29.3-31.3,29.3h-0.3l2.2-3.2c4.8-7.1,9.1-14.2,9.1-20.8c0-13.7-8.7-24-25.7-24c-14.7,0-25.8,11.3-25.8,24.5h14
		c0-6.6,4.3-11.5,11.8-11.5c8,0,11.7,4.7,11.7,11.4c0,5.2-3.3,10.3-6.9,15.6l-5.6,8.1h-23v13h14.1l-24.5,35.9h58.8v-13.1H69.8
		l15.6-22.9h8.2c1.3,0,2.7,0,4-0.1l41.1,53.6h17.7l-13.6-17.6l25.8-37.7c6.6-9.3,14.4-19.5,14.4-31.1
		C182.9,80.1,171.1,67.3,154.1,67.3z M134.2,153.2L113,125.8c7.8-2.5,14.1-6.6,18.6-12.3c5.1,6.4,13,10.5,22.7,10.5
		c0.1,0,0.6,0,0.7,0L134.2,153.2z M154.1,110.9c-8.9,0-14.7-6.7-14.7-15.3c0-0.7,0-1.3,0.1-2.1c0-0.1,0-0.2,0-0.4
		c1-7.3,6.5-12.8,14.5-12.8c8.9,0,14.7,6.7,14.7,15.3C168.8,104.2,163,110.9,154.1,110.9z"/>
	<path class="st0" d="M110,0C49.4,0,0,49.4,0,110s49.4,110,110,110s110-49.4,110-110.1C220,49.3,170.7,0,110,0z M110,207
		c-53.5,0-97-43.5-97-97s43.5-97,97-97s97,43.5,97,97C207,163.4,163.5,207,110,207z"/>
</g>
</svg>
